<mxfile host="65bd71144e">
    <diagram id="2umxZIdMKTeIlHOgjQfW" name="PÃ¡gina-1">
        <mxGraphModel dx="1558" dy="432" grid="1" gridSize="10" guides="1" tooltips="1" connect="1" arrows="1" fold="1" page="1" pageScale="1" pageWidth="827" pageHeight="1169" math="0" shadow="0">
            <root>
                <mxCell id="0"/>
                <mxCell id="1" parent="0"/>
                <mxCell id="11" value="" style="group" parent="1" vertex="1" connectable="0">
                    <mxGeometry x="-820" y="50" width="440" height="440" as="geometry"/>
                </mxCell>
                <mxCell id="2" value="" style="whiteSpace=wrap;html=1;aspect=fixed;" parent="11" vertex="1">
                    <mxGeometry width="440" height="440" as="geometry"/>
                </mxCell>
                <mxCell id="5" value="" style="endArrow=none;html=1;entryX=0.997;entryY=0.138;entryDx=0;entryDy=0;entryPerimeter=0;exitX=-0.005;exitY=0.138;exitDx=0;exitDy=0;exitPerimeter=0;" parent="11" source="2" target="2" edge="1">
                    <mxGeometry width="50" height="50" relative="1" as="geometry">
                        <mxPoint x="10" y="-73" as="sourcePoint"/>
                        <mxPoint x="70" y="10" as="targetPoint"/>
                        <Array as="points"/>
                    </mxGeometry>
                </mxCell>
                <mxCell id="7" value="&lt;font style=&quot;font-size: 24px;&quot;&gt;People&lt;/font&gt;" style="text;html=1;strokeColor=none;fillColor=none;align=center;verticalAlign=middle;whiteSpace=wrap;rounded=0;" parent="11" vertex="1">
                    <mxGeometry x="150" y="20" width="130" height="30" as="geometry"/>
                </mxCell>
                <mxCell id="8" value="&lt;font style=&quot;&quot;&gt;&lt;font style=&quot;font-size: 12px;&quot;&gt;&lt;font style=&quot;&quot;&gt;this&lt;/font&gt;.name: String&lt;br&gt;this.telefonefixo: Int&lt;br&gt;this.telefonecelular: Int&lt;br&gt;this.foto: String&lt;br&gt;this.date: Int&lt;br&gt;this.email: String&lt;br&gt;this.cep: Int&lt;br&gt;this.cidade: String&lt;br&gt;this.insta: String&lt;br&gt;this.git: String&lt;br&gt;this.identificador: Int&lt;br&gt;&lt;/font&gt;&lt;br&gt;&lt;/font&gt;" style="text;html=1;strokeColor=none;fillColor=none;align=center;verticalAlign=middle;whiteSpace=wrap;rounded=0;fontSize=18;" parent="11" vertex="1">
                    <mxGeometry y="170" width="140" height="80" as="geometry"/>
                </mxCell>
                <mxCell id="9" value="" style="endArrow=none;html=1;" parent="11" edge="1">
                    <mxGeometry width="50" height="50" relative="1" as="geometry">
                        <mxPoint y="340" as="sourcePoint"/>
                        <mxPoint x="440" y="340" as="targetPoint"/>
                        <Array as="points"/>
                    </mxGeometry>
                </mxCell>
                <mxCell id="10" value="&lt;div style=&quot;background-color: rgb(19, 19, 19); font-family: Consolas, &amp;quot;Courier New&amp;quot;, monospace; font-size: 14px; line-height: 19px;&quot;&gt;&lt;font color=&quot;#ffffff&quot;&gt;calculateAge(): boolean&lt;/font&gt;&lt;/div&gt;&lt;div style=&quot;background-color: rgb(19, 19, 19); font-family: Consolas, &amp;quot;Courier New&amp;quot;, monospace; font-size: 14px; line-height: 19px;&quot;&gt;&lt;font color=&quot;#ffffff&quot;&gt;getSign(): boolean&lt;/font&gt;&lt;/div&gt;" style="text;html=1;strokeColor=none;fillColor=none;align=center;verticalAlign=middle;whiteSpace=wrap;rounded=0;fontSize=11;" parent="11" vertex="1">
                    <mxGeometry y="350" width="190" height="70" as="geometry"/>
                </mxCell>
                <mxCell id="12" value="" style="group;rotation=0;" parent="1" vertex="1" connectable="0">
                    <mxGeometry x="-330" y="120" width="309.64" height="379.66" as="geometry"/>
                </mxCell>
                <mxCell id="13" value="" style="whiteSpace=wrap;html=1;aspect=fixed;rotation=0;" parent="12" vertex="1">
                    <mxGeometry x="69.40206896551724" y="52.067657142857136" width="179.5026797423373" height="179.5026797423373" as="geometry"/>
                </mxCell>
                <mxCell id="14" value="" style="endArrow=none;html=1;" parent="12" edge="1">
                    <mxGeometry width="50" height="50" relative="1" as="geometry">
                        <mxPoint x="69.99999999999999" y="90" as="sourcePoint"/>
                        <mxPoint x="250" y="90" as="targetPoint"/>
                        <Array as="points"/>
                    </mxGeometry>
                </mxCell>
                <mxCell id="15" value="&lt;div style=&quot;background-color: rgb(19, 19, 19); font-family: Consolas, &amp;quot;Courier New&amp;quot;, monospace; line-height: 19px;&quot;&gt;&lt;font style=&quot;font-size: 18px;&quot; color=&quot;#ffffff&quot;&gt;ListaPeople&lt;/font&gt;&lt;/div&gt;" style="text;html=1;strokeColor=none;fillColor=none;align=center;verticalAlign=middle;whiteSpace=wrap;rounded=0;rotation=0;" parent="12" vertex="1">
                    <mxGeometry x="118.51510344827585" y="60.00291428571428" width="91.48454545454544" height="25.88590909090909" as="geometry"/>
                </mxCell>
                <mxCell id="16" value="&lt;font style=&quot;&quot;&gt;&lt;font style=&quot;font-size: 12px;&quot;&gt;this.arrayPeople = [ ]&lt;/font&gt;&lt;br&gt;&lt;/font&gt;" style="text;html=1;strokeColor=none;fillColor=none;align=center;verticalAlign=middle;whiteSpace=wrap;rounded=0;fontSize=18;rotation=0;" parent="12" vertex="1">
                    <mxGeometry x="70.47" y="77.02" width="139.53" height="69.03" as="geometry"/>
                </mxCell>
                <mxCell id="17" value="" style="endArrow=none;html=1;exitX=0;exitY=1;exitDx=0;exitDy=0;" parent="12" source="16" edge="1">
                    <mxGeometry width="50" height="50" relative="1" as="geometry">
                        <mxPoint x="70.46979310344828" y="146.44028571428572" as="sourcePoint"/>
                        <mxPoint x="249.64" y="146" as="targetPoint"/>
                        <Array as="points"/>
                    </mxGeometry>
                </mxCell>
                <mxCell id="18" value="&lt;div style=&quot;background-color: rgb(19, 19, 19); font-family: Consolas, &amp;quot;Courier New&amp;quot;, monospace; font-size: 14px; line-height: 19px;&quot;&gt;&lt;font color=&quot;#ffffff&quot;&gt;add(people): boolean&lt;/font&gt;&lt;/div&gt;&lt;div style=&quot;background-color: rgb(19, 19, 19); font-family: Consolas, &amp;quot;Courier New&amp;quot;, monospace; font-size: 14px; line-height: 19px;&quot;&gt;&lt;font color=&quot;#ffffff&quot;&gt;getAll(): void&lt;/font&gt;&lt;/div&gt;&lt;div style=&quot;background-color: rgb(19, 19, 19); font-family: Consolas, &amp;quot;Courier New&amp;quot;, monospace; font-size: 14px; line-height: 19px;&quot;&gt;&lt;br&gt;&lt;/div&gt;" style="text;html=1;strokeColor=none;fillColor=none;align=center;verticalAlign=middle;whiteSpace=wrap;rounded=0;fontSize=11;rotation=0;" parent="12" vertex="1">
                    <mxGeometry x="69.4" y="159.46" width="170.6" height="60.4" as="geometry"/>
                </mxCell>
                <mxCell id="21" style="edgeStyle=none;html=1;fontSize=12;fontColor=#FFFFFF;endArrow=diamond;endFill=1;exitX=1;exitY=0.5;exitDx=0;exitDy=0;" parent="12" source="2" edge="1">
                    <mxGeometry relative="1" as="geometry">
                        <mxPoint x="70" y="150" as="targetPoint"/>
                        <mxPoint x="-40" y="146.05" as="sourcePoint"/>
                        <Array as="points"/>
                    </mxGeometry>
                </mxCell>
                <mxCell id="23" value="0..1" style="text;html=1;strokeColor=none;fillColor=none;align=center;verticalAlign=middle;whiteSpace=wrap;rounded=0;fontSize=12;fontColor=#FFFFFF;" parent="12" vertex="1">
                    <mxGeometry x="20" y="160" width="60" height="30" as="geometry"/>
                </mxCell>
                <mxCell id="24" value="1..*" style="text;html=1;strokeColor=none;fillColor=none;align=center;verticalAlign=middle;whiteSpace=wrap;rounded=0;fontSize=12;fontColor=#FFFFFF;" parent="1" vertex="1">
                    <mxGeometry x="-390" y="280" width="60" height="30" as="geometry"/>
                </mxCell>
            </root>
        </mxGraphModel>
    </diagram>
</mxfile>